PathFileType	4	(X/Y/Z)	C:\Users\Basilio\Documents\Thesis Gigler\squatting_fais\c3dfiles\075\SJ_pre1\markers_experimental.trc
DataRate	CameraRate	NumFrames	NumMarkers	Units	OrigDataRate	OrigDataStartFrame	OrigNumFrames
200.000000	200.000000	4	61	mm	200.000000	1436	1642
Frame#	Time	FHD			LBHD			C7			T10			CLAV			LSHO			LUUPA			LMUPA			LDUPA			LLEP			LMEP			LRAD			LUL			LRFIN			RSHO			RUPA1			RMUPA			RDUPA			RLEP			RMEP			RRAD			RUL			RUFIN			LASI			RASI			USACR			LSACR			RSACR			LTHI1			LTHI2			LTHI3			LTHI4			LLFC			LMFC			LTIB1			LTIB2			LTIB3			LTIB4			LLMAL			LMMAL			LHEE			LMT1			LMT2			LMT5			RTHI			RTHI2			RTHI3			RTHI4			RLFC			RMFC			RTIB1			RTIB2			RTIB3			RTIB4			RLMAL			RMMAL			RHEE			RMT1			RMT2			RMT5			RBHD			
		X1	Y1	Z1	X2	Y2	Z2	X3	Y3	Z3	X4	Y4	Z4	X5	Y5	Z5	X6	Y6	Z6	X7	Y7	Z7	X8	Y8	Z8	X9	Y9	Z9	X10	Y10	Z10	X11	Y11	Z11	X12	Y12	Z12	X13	Y13	Z13	X14	Y14	Z14	X15	Y15	Z15	X16	Y16	Z16	X17	Y17	Z17	X18	Y18	Z18	X19	Y19	Z19	X20	Y20	Z20	X21	Y21	Z21	X22	Y22	Z22	X23	Y23	Z23	X24	Y24	Z24	X25	Y25	Z25	X26	Y26	Z26	X27	Y27	Z27	X28	Y28	Z28	X29	Y29	Z29	X30	Y30	Z30	X31	Y31	Z31	X32	Y32	Z32	X33	Y33	Z33	X34	Y34	Z34	X35	Y35	Z35	X36	Y36	Z36	X37	Y37	Z37	X38	Y38	Z38	X39	Y39	Z39	X40	Y40	Z40	X41	Y41	Z41	X42	Y42	Z42	X43	Y43	Z43	X44	Y44	Z44	X45	Y45	Z45	X46	Y46	Z46	X47	Y47	Z47	X48	Y48	Z48	X49	Y49	Z49	X50	Y50	Z50	X51	Y51	Z51	X52	Y52	Z52	X53	Y53	Z53	X54	Y54	Z54	X55	Y55	Z55	X56	Y56	Z56	X57	Y57	Z57	X58	Y58	Z58	X59	Y59	Z59	X60	Y60	Z60	X61	Y61	Z61	

1437	7.18	-117.0837860107422	1610.260131835938	-906.9179687500002	-303.7497558593751	1587.19091796875	-975.8951416015627	-395.1309204101564	1472.134155273438	-912.9089965820315	-454.274627685547	1146.2626953125	-910.2725830078127	-261.4134521484376	1388.940185546875	-913.143981933594	-296.4630126953126	1433.802368164063	-1071.08837890625	-357.2603759765626	1295.009521484375	-1239.578247070313	-329.6924133300782	1253.9482421875	-1230.802124023438	-362.8870239257813	1237.214721679688	-1278.935668945313	-370.5667724609376	1153.489501953125	-1305.75244140625	-451.3058166503907	1154.331298828125	-1260.53173828125	-368.7783203125001	972.0008544921877	-1133.853881835938	-334.9149475097657	929.9215087890627	-1186.866577148438	-325.3439025878907	952.718688964844	-1092.436889648438	-295.6804809570313	1432.361328125	-752.6181640625001	-354.7479553222657	1290.466552734375	-591.5675659179689	-328.8474731445313	1247.770874023438	-596.5924072265626	-366.2313232421876	1232.673583984375	-551.2292480468751	-370.6213989257813	1163.78466796875	-525.0737304687501	-447.9702758789064	1142.521484375	-553.9738769531251	-348.3070983886719	969.9365844726565	-704.7069091796876	-303.5638427734376	942.102722167969	-649.5222167968751	-293.1355590820313	960.0881958007815	-750.1659545898439	-315.0965270996094	947.301940917969	-1042.521850585938	-300.4321594238282	958.7933349609377	-793.7969360351565	-460.1231689453126	1043.889892578125	-913.9064941406252	-469.4911193847657	1012.216125488281	-940.6630859375002	-466.5196838378907	1013.993896484375	-883.247741699219	-372.0530090332032	721.6029052734376	-1117.016845703125	-338.6647644042969	643.9853515625001	-1119.436645507813	-292.0160217285157	650.5469360351564	-1105.180053710938	-364.4550170898438	589.9088134765626	-1109.206176757813	-361.3692626953126	482.9892578125001	-1101.281372070313	-315.8853759765626	468.8928833007814	-988.5321044921877	-304.9576416015626	359.5073242187501	-1082.083374023438	-366.5901184082032	320.2944641113282	-1129.557250976563	-324.5811462402344	314.3046875000001	-1113.166625976563	-324.7057495117188	232.6799774169922	-1088.95849609375	-399.4636840820314	91.90212249755861	-1107.652221679688	-361.2797851562501	100.5102767944336	-1029.965209960938	-444.4741210937501	47.42881393432618	-1061.1201171875	-231.1246185302735	53.54849243164064	-1069.771850585938	-237.7953186035157	58.37649536132814	-1118.373168945313	-282.4375305175782	42.07607650756837	-1166.174926757813	-363.5591735839844	774.5135498046877	-709.2803955078126	-321.0774230957032	724.3309936523439	-707.3571166992189	-290.6001586914063	731.6160278320314	-719.8722534179689	-342.7280883789063	641.5112304687501	-709.2064819335939	-342.3695373535157	487.7963867187501	-729.2306518554689	-303.7907104492188	470.057830810547	-848.1211547851565	-291.4421081542969	337.2678222656251	-776.9397583007815	-346.2449645996094	264.6730957031251	-714.9924926757814	-308.3743591308594	257.4535217285157	-743.7507324218751	-315.8499755859376	209.6532897949219	-776.7742309570315	-387.2493896484376	91.17572021484376	-733.1650390625001	-351.2240295410157	108.9668426513672	-813.8223266601565	-429.9539184570314	47.46413040161134	-791.4880371093752	-222.4927825927735	59.88069152832033	-768.712585449219	-229.4491424560547	62.30401992797853	-727.0488891601564	-269.1151733398438	37.93931198120118	-679.0247192382814	-252.0263366699219	1602.07763671875	-823.3345336914065	
1438	7.185	-117.6026611328125	1611.94873046875	-906.3486938476565	-304.2933044433594	1586.93994140625	-975.173034667969	-395.0868530273439	1472.0673828125	-912.1079101562502	-453.9845581054689	1146.348022460938	-909.402282714844	-261.2857055664063	1388.912353515625	-912.2913818359377	-296.3492126464844	1433.66943359375	-1070.161499023438	-357.1253356933594	1294.747802734375	-1238.740356445313	-329.4244689941407	1253.543334960938	-1229.619018554688	-362.6108398437501	1236.783813476563	-1277.85986328125	-370.2363586425782	1153.388305664063	-1305.04150390625	-451.1910400390626	1154.042602539063	-1259.515625	-368.7195434570313	971.6450195312502	-1132.989501953125	-334.6371459960938	929.7214355468752	-1186.060546875	-325.0252380371094	952.6914672851565	-1091.47216796875	-295.3937988281251	1432.20263671875	-751.6031494140626	-354.5819702148438	1290.200561523438	-590.6228027343751	-328.6876220703126	1247.350708007813	-595.8371582031251	-365.9192810058594	1232.31982421875	-550.4907226562501	-370.4089965820313	1163.46484375	-524.2974243164064	-447.6761169433595	1142.286743164063	-553.1473999023439	-348.1718444824219	969.635681152344	-703.7663574218751	-303.2999572753907	941.7072753906252	-648.7034912109376	-292.6512756347657	959.874450683594	-749.2505493164064	-315.0691528320313	947.4832153320315	-1041.657836914063	-300.0029907226563	958.8051757812502	-792.805358886719	-459.7717285156251	1043.81640625	-912.9671020507815	-469.2522888183595	1012.00146484375	-939.8665771484377	-466.2597045898439	1013.937316894531	-882.3948364257815	-371.6840515136719	721.5603027343751	-1116.278686523438	-338.7538452148438	644.2352905273439	-1119.137084960938	-291.3201599121094	650.4710693359376	-1104.481811523438	-363.9893188476563	590.0160522460939	-1108.70458984375	-360.6220397949219	483.006317138672	-1100.716186523438	-315.6814575195313	468.6938781738282	-988.0130004882815	-305.0393981933594	359.5494384765626	-1081.974975585938	-366.1706848144532	320.3056945800782	-1129.299438476563	-324.1397094726563	314.3592529296876	-1112.854858398438	-324.5005187988282	232.7124786376954	-1088.638793945313	-399.5095214843751	91.95410156250001	-1107.611450195313	-361.2402648925782	100.4973831176758	-1029.910278320313	-444.4375000000001	47.41654968261719	-1061.079345703125	-231.1478729248047	53.48149490356447	-1069.654052734375	-237.7893066406251	58.43376922607423	-1118.3349609375	-282.5315856933594	42.12214660644532	-1166.105224609375	-363.5584716796876	774.5639648437502	-708.3466186523439	-321.2185363769532	724.2348632812501	-706.6550903320314	-290.5461120605469	731.5537109375001	-718.7532958984376	-342.9606933593751	641.4632568359376	-708.5043334960939	-342.9335327148438	487.7652893066407	-728.7336425781251	-303.9266052246094	470.178924560547	-847.5704345703127	-291.6747741699219	337.3176269531251	-776.6016235351565	-346.1947326660157	264.6582031250001	-714.5692749023439	-308.4634704589844	257.3809509277344	-743.4375610351564	-315.9833679199219	209.4679870605469	-776.495544433594	-387.2373046875001	91.00235748291017	-732.9191894531251	-351.2500915527344	109.0010833740235	-813.6257934570315	-430.0781860351564	47.48974609375001	-791.351501464844	-222.5492858886719	59.878719329834	-768.5906372070315	-229.4229278564454	62.31601333618165	-726.8923339843751	-269.1012268066407	37.7978630065918	-678.9091796875001	-252.3951416015626	1602.395874023438	-822.7926025390627	
1439	7.19	-118.4337844848633	1613.863159179688	-905.7938232421877	-304.9772033691407	1586.707763671875	-974.5576782226565	-394.8720703125001	1472.053466796875	-911.195739746094	-453.7864074707032	1146.312133789063	-908.5603637695315	-260.6681823730469	1388.751586914063	-911.143981933594	-296.2418518066407	1433.551391601563	-1069.36474609375	-356.7604370117188	1294.447509765625	-1237.498046875	-329.0057983398438	1253.343505859375	-1228.875122070313	-362.2011108398438	1236.623413085938	-1276.8017578125	-370.0722351074219	1153.171875	-1304.101196289063	-450.9240722656251	1153.8310546875	-1258.587036132813	-368.2308349609376	971.4981079101565	-1131.9658203125	-334.1201477050782	929.537292480469	-1185.109130859375	-324.9955749511719	952.5210571289065	-1090.725463867188	-295.1102905273438	1432.113525390625	-750.6925659179689	-354.3154296875001	1290.006103515625	-589.6765136718751	-328.6201171875001	1247.159423828125	-595.0609130859376	-365.7359619140626	1232.201416015625	-549.5561523437501	-370.1270446777344	1163.146606445313	-523.3188476562501	-447.4667053222657	1141.986572265625	-552.2267456054689	-347.8681945800782	969.286315917969	-702.7438964843751	-303.1677551269532	941.2202148437502	-647.8339843750001	-292.0132751464844	959.9655761718752	-748.1632690429689	-314.7184753417969	947.345397949219	-1040.863037109375	-299.8040161132813	958.791442871094	-791.7951660156252	-459.3627014160157	1043.694580078125	-912.2041625976565	-468.9802246093751	1011.83154296875	-938.9962158203127	-466.0012207031251	1013.935363769531	-881.5139770507815	-371.1573181152344	721.6005249023439	-1115.46728515625	-337.6013488769532	643.8954467773439	-1117.766723632813	-290.7829284667969	650.4108276367189	-1103.58056640625	-363.5049438476563	590.0788574218751	-1108.200927734375	-359.7768859863282	482.9039611816407	-1100.240844726563	-315.2229309082032	468.5681457519532	-987.543395996094	-304.5635986328126	359.5668334960938	-1081.586547851563	-365.5079956054688	320.1841125488282	-1128.912475585938	-323.1749267578126	314.2864990234376	-1112.191528320313	-324.0813293457032	232.6368713378907	-1088.32373046875	-399.4632263183595	92.0582962036133	-1107.539428710938	-361.1682128906251	100.5247268676758	-1029.849731445313	-444.4502258300782	47.45846939086915	-1061.00732421875	-231.1295928955079	53.51549530029298	-1069.5771484375	-237.8568725585938	58.53939056396486	-1118.281982421875	-282.5219421386719	42.19739532470704	-1166.052490234375	-363.5583801269532	774.5788574218752	-707.6097412109376	-321.3084411621094	724.2102050781251	-705.7936401367189	-290.6460571289063	731.4240722656251	-717.8579101562501	-343.3120727539063	641.3930664062501	-707.8556518554689	-343.2601013183594	487.8474426269532	-728.2015991210939	-304.4126586914063	470.3807678222657	-847.2177734375002	-291.8211975097657	337.3073730468751	-776.2283325195315	-346.2440185546876	264.5445251464844	-714.1494750976564	-308.4930114746094	257.2620849609376	-743.1687011718751	-316.0477905273438	209.5126190185547	-776.215270996094	-387.3532104492189	90.84636688232423	-732.7128295898439	-351.2934265136719	108.8480224609375	-813.323425292969	-430.0125122070314	47.42542266845704	-791.2104492187502	-222.6790924072266	59.94646453857423	-768.4869384765627	-229.4445037841797	62.3549156188965	-726.6942138671876	-269.1299133300782	37.69684982299805	-678.7774658203126	-253.1836547851563	1602.897216796875	-821.944519042969	
1440	7.195	-119.249870300293	1615.84814453125	-905.3946533203127	-305.6591796875001	1586.292602539063	-973.892517089844	-394.7279052734376	1471.9990234375	-910.1527099609377	-453.5494079589845	1146.315185546875	-907.778259277344	-260.4289550781251	1388.815795898438	-910.1387939453127	-296.0709228515626	1433.428344726563	-1068.364868164063	-356.6464843750001	1294.348022460938	-1236.502319335938	-328.8162841796876	1253.189331054688	-1227.894775390625	-362.3768005371094	1236.535034179688	-1275.903076171875	-370.3765563964844	1152.825073242188	-1302.62353515625	-450.9600830078126	1153.545166015625	-1257.509399414063	-367.7463989257813	971.2264404296877	-1131.235717773438	-333.8361511230469	929.3200683593752	-1184.19970703125	-324.3904418945313	952.3779907226565	-1089.927368164063	-294.9279174804688	1431.981079101563	-749.8566894531251	-354.1555480957032	1289.788940429688	-588.7493896484376	-328.2472229003907	1246.934326171875	-593.8706665039064	-365.4895324707032	1231.903076171875	-548.6500244140626	-369.8060302734376	1162.967163085938	-522.3355102539064	-447.0540161132814	1141.81591796875	-551.1337890625001	-347.6442565917969	969.2100219726565	-701.7847900390626	-302.9361267089844	941.1301879882815	-646.7600708007814	-292.0036621093751	959.9099121093752	-747.0554809570314	-314.1926574707032	947.3298339843752	-1039.870361328125	-299.6955261230469	958.7911376953127	-790.838562011719	-459.1395263671876	1043.624633789063	-911.240905761719	-468.6610107421876	1011.768005371094	-937.9921875000002	-465.6211853027345	1013.883666992188	-880.6853027343752	-370.5565490722657	721.5205688476564	-1114.682983398438	-337.0879821777344	644.0551757812501	-1117.180419921875	-291.1609802246094	650.6214599609376	-1103.250244140625	-362.8144226074219	589.9982910156251	-1107.562866210938	-359.2089843750001	482.8646240234376	-1099.869995117188	-314.7387084960938	468.4620361328126	-986.9094238281252	-304.0814514160157	359.4588928222657	-1081.193359375	-365.2602844238282	320.3906555175782	-1128.613891601563	-322.7138061523438	314.2290649414063	-1111.770263671875	-323.7558288574219	232.6437530517579	-1087.971069335938	-399.4283447265626	92.11602783203126	-1107.476806640625	-361.1475219726563	100.6097488403321	-1029.769409179688	-444.4740295410157	47.47906494140626	-1061.01806640625	-231.1191101074219	53.42572402954103	-1069.496337890625	-237.7895965576172	58.55202484130861	-1118.1513671875	-282.5282287597657	42.22522354125977	-1165.961059570313	-363.6488037109376	774.6182250976565	-706.6815795898439	-321.3990783691407	724.1003417968751	-704.9645996093751	-290.7299499511719	731.3770751953126	-716.8793945312501	-343.5929565429688	641.3716430664064	-707.1215209960939	-343.4208679199219	487.9089660644532	-727.5929565429689	-304.5906066894532	470.5255737304689	-846.7380371093752	-291.9462890625001	337.3004760742188	-775.8236083984377	-346.2137451171876	264.5022888183594	-713.7363281250001	-308.0168457031251	256.9979248046876	-742.4431152343751	-316.1354370117188	209.4317321777344	-775.9450683593752	-387.3434143066407	90.70635986328126	-732.4598388671876	-351.3024597167969	108.9170684814453	-813.1652832031252	-430.1054077148439	47.44550704956055	-791.0474243164065	-222.7674407958985	59.99620056152345	-768.344665527344	-229.2068481445313	62.44956588745119	-726.2677612304689	-269.2022705078126	37.51136779785157	-678.6231689453126	-253.6172027587891	1603.359985351563	-821.227722167969	
